<svg role="presentation" viewBox="0 0 464 67" fill="none" xmlns="http://www.w3.org/2000/svg"><path d="M165 67c-7 0-12.5-2-16.2-6.2-3.8-4.2-5.6-10.1-5.6-17.9 0-8 2-14 5.8-18.2 3.9-4.3 9.5-6.4 16.9-6.4 5 0 9.5 1.1 13.5 3l-5.7 6.7a21 21 0 0 0-7.9-1.4c-8.2 0-12.3 5.4-12.3 16.2 0 5.3 1 9.2 3 11.9 2.1 2.6 5.1 4 9 4 4.5 0 8.8-1.1 12.7-3.4v8.8a20 20 0 0 1-5.7 2.2c-2 .5-4.5.7-7.4.7ZM193.3 15.5l1-1V0l-9.9 4.6V26l1-1.2a178 178 0 0 1 7.9-9.3ZM206.7 39.3l19-20.2h-11.6l-14.3 15.2-5.7 7h-.2l.5-9v-2.6l-10 11.5v25h10V50l5.5-4.5 15.2 20.6h11.8l-20.2-26.8ZM29.7 11.8c-5.9 0-10.5 2-13.9 6.2-3.3 4.2-5 9.9-5 17.2 0 7.6 1.6 13.4 4.8 17.3 3.3 3.9 8 5.8 14 5.8 2.7 0 5.3-.2 7.8-.8a90 90 0 0 0 7.7-2v8.7A47.3 47.3 0 0 1 28.4 67c-9.1 0-16.1-2.8-21-8.3C2.4 53.2 0 45.3 0 35.1a38 38 0 0 1 3.6-17C6 13.3 9.4 9.6 13.9 7 18.4 4.4 23.7 3 29.8 3c6.4 0 12.3 1.3 17.7 4l-3.7 8.5c-2.1-1-4.3-1.9-6.7-2.7-2.3-.7-4.8-1-7.4-1ZM92.6 66.1h-10V37.2c0-3.6-.8-6.3-2.3-8-1.4-1.9-3.8-2.8-7-2.8-4.2 0-7.3 1.3-9.3 3.8-2 2.5-3 6.7-3 12.6v23.4H51V4.6L61 0v16.8c0 2.7-.1 5.6-.5 8.6h.7a14 14 0 0 1 5.7-5.3c2.4-1.2 5.3-1.8 8.5-1.8 11.5 0 17.2 5.7 17.2 17.2v30.6ZM118.5 25.8c-3.1 0-5.7 1-7.6 3-2 2-3.1 5-3.5 8.9H129c0-4-1-6.9-2.8-8.9-1.8-2-4.4-3-7.6-3Zm1.9 41.2a23 23 0 0 1-17.3-6.4A24.2 24.2 0 0 1 97 43c0-7.7 2-13.7 5.8-18.1a20 20 0 0 1 15.9-6.6c6.2 0 11.1 1.9 14.8 5.6 3.6 3.8 5.4 9 5.4 15.6v5.4h-31.5c.1 4.6 1.3 8 3.7 10.5a13 13 0 0 0 9.9 3.7 36.6 36.6 0 0 0 15.5-3.4v8.1a31 31 0 0 1-7.4 2.5c-2.5.5-5.4.7-8.6.7Z" fill="#EB1F40"></path><path d="M243.9 59c3.6 0 6.6-1 8.8-3a11 11 0 0 0 3.3-8.6v-4l-6 .2c-4.8.2-8.2 1-10.4 2.4-2.2 1.4-3.2 3.5-3.2 6.4 0 2.1.6 3.7 1.8 4.9 1.3 1.1 3.2 1.7 5.7 1.7Zm15 6.8-2-6.5h-.4a19.4 19.4 0 0 1-6.9 5.8c-2.3 1-5.2 1.6-8.9 1.6-4.6 0-8.2-1.3-10.9-3.8-2.6-2.5-3.9-6-3.9-10.6 0-4.8 1.8-8.5 5.5-11 3.6-2.4 9.1-3.8 16.5-4l8.2-.2v-2.5c0-3-.7-5.3-2.1-6.8-1.4-1.5-3.6-2.2-6.6-2.2-2.4 0-4.7.3-7 1-2.2.8-4.3 1.6-6.4 2.6l-3.2-7.2a39.2 39.2 0 0 1 17-4c6 0 10.6 1.2 13.7 3.8 3 2.6 4.6 6.7 4.6 12.3v31.7h-7.2Z" fill="#EB1F40"></path><path d="M292.1 59c2.5 0 5-.5 7.4-1.2v7.5a29.6 29.6 0 0 1-9.8 1.7c-9.5 0-14.3-5-14.3-15V26.7H269v-4.4l6.9-3.7 3.4-10h6.2v10.5H299v7.6h-13.5v25.2c0 2.4.6 4.2 1.8 5.3a6.7 6.7 0 0 0 4.8 1.7ZM327 18.3c2 0 3.7.1 5 .4l-1 9.3c-1.4-.3-3-.5-4.5-.5a13 13 0 0 0-9.7 4c-2.5 2.5-3.8 6-3.8 10v24.7h-10v-47h7.8l1.4 8.2h.5c1.5-2.8 3.6-5 6.1-6.7 2.5-1.6 5.3-2.4 8.2-2.4ZM348.3 59.3c3.6 0 6.6-1 8.8-3a11 11 0 0 0 3.3-8.5v-4l-6.1.2c-4.7.1-8.2 1-10.3 2.3-2.2 1.4-3.3 3.6-3.3 6.5 0 2 .7 3.7 2 4.8 1.2 1.2 3 1.7 5.6 1.7Zm15 6.8-2-6.5h-.4a19.3 19.3 0 0 1-6.9 5.8c-2.3 1-5.3 1.6-8.9 1.6-4.6 0-8.3-1.2-10.9-3.7a14 14 0 0 1-3.9-10.6c0-4.9 1.8-8.5 5.4-11 3.7-2.5 9.2-3.8 16.6-4l8.2-.3V35c0-3-.7-5.3-2.2-6.7-1.4-1.5-3.6-2.3-6.5-2.3-2.4 0-4.8.4-7 1-2.2.8-4.4 1.6-6.4 2.6l-3.3-7.1a39.1 39.1 0 0 1 17-4c6.1-.1 10.7 1.2 13.7 3.8 3.1 2.6 4.6 6.7 4.6 12.3V66h-7.2ZM396.2 59c4.2 0 7.2-1.2 9-3.5 2-2.4 3-6.1 3-11.3v-1.4c0-6-1-10.1-3-12.6-1.9-2.5-5-3.8-9-3.8a9.3 9.3 0 0 0-8.2 4.3c-2 2.9-2.9 7-2.9 12.2 0 5.2 1 9.2 2.8 12a9.4 9.4 0 0 0 8.3 4Zm-2.7 8c-5.9 0-10.5-2.1-13.8-6.4-3.3-4.2-5-10.2-5-17.9 0-7.7 1.7-13.7 5-18 3.4-4.3 8-6.4 14-6.4 6.2 0 11 2.3 14.2 6.8h.5c-.5-3.3-.7-6-.7-8V4.6L417.8 0v66.1h-7.9l-1.7-6.1h-.5c-3.2 4.7-8 7-14.2 7ZM443.8 25.8c-3.2 0-5.8 1-7.7 3-2 2-3 5-3.5 8.9h21.5c0-4-1-6.9-2.8-8.9-1.8-2-4.3-3-7.5-3Zm1.8 41.2a23 23 0 0 1-17.3-6.4 24.2 24.2 0 0 1-6.2-17.6c0-7.7 2-13.7 5.8-18.1a20 20 0 0 1 15.9-6.6c6.2 0 11.1 1.9 14.8 5.6 3.6 3.8 5.4 9 5.4 15.6v5.4h-31.5c.1 4.6 1.4 8 3.7 10.5a13 13 0 0 0 9.9 3.7 36.6 36.6 0 0 0 15.6-3.4v8.1a31 31 0 0 1-7.5 2.5c-2.5.5-5.4.7-8.6.7ZM165.4 33.3c-.2-.1-1-.4-1.6-.1-3.8 1.3-5.1 3.6-4.8 7 .6 5.7 1.5 8 2 9.3.4 1.6 2.4 3.4 4.4 3.4 1.6 0 3.8-.2 7.6-4.2l38-43c-.2.2 0 .1 0 .1-2.4-.1-6 .1-7.7.4-1.6.3-3 1-4.1 1.6-3.3 2-29.9 33.1-30.6 33.1-1.2 0-1.5-3-1.8-5.1-.1-1-.4-1.6-.7-2l-.7-.5Z" fill="#0058A2"></path></svg>
