<svg id="Layer_1" data-name="Layer 1" xmlns="http://www.w3.org/2000/svg" viewBox="0 0 1000 1268.81"><defs><style>.cls-1{fill:#fff;}</style></defs><title>MCS_BLACK_logo_RGB</title><rect width="1000" height="1000"/><path class="cls-1" d="M766.63,414.55a15.09,15.09,0,1,1,.07,0Zm41.57.17a15.09,15.09,0,1,1,.06,0Zm-95.71-3.31a15,15,0,0,1,6.72-20.19v0a15.07,15.07,0,1,1-6.72,20.21m124,12.43a15.07,15.07,0,1,1,10.12,3.9,15.05,15.05,0,0,1-10.12-3.9M696,450.2a15.08,15.08,0,1,1,4.17.58,15.06,15.06,0,0,1-4.17-.58m-3.26,33.4a15.06,15.06,0,1,1,12.85,7.19,15.08,15.08,0,0,1-12.85-7.19m43.12,30a15,15,0,1,1,2.88.29,14.89,14.89,0,0,1-2.88-.29m29.32-13.84a15.06,15.06,0,1,1,15.06,15,15.06,15.06,0,0,1-15.06-15m53.69,15.68a15,15,0,1,1,2.88.29,15.06,15.06,0,0,1-2.88-.29m23.22,16.15a15.05,15.05,0,1,1,12.84,7.17,15,15,0,0,1-12.84-7.17m14.13,46.6a15.06,15.06,0,1,1,4.15.58,14.9,14.9,0,0,1-4.15-.58M703.77,597.94a15,15,0,1,1,10.16,4,15,15,0,0,1-10.16-4M821,601.47a15,15,0,1,1,13.48,8.33A15,15,0,0,1,821,601.47M737.13,600a15.05,15.05,0,1,1,15,15.05,15.05,15.05,0,0,1-15-15.05m41.58,0a15.06,15.06,0,1,1,15,15.05,15.05,15.05,0,0,1-15-15.05M617.35,464.85a14.59,14.59,0,0,0,2.94-.3,13.8,13.8,0,0,0,2.81-.85,14.2,14.2,0,0,0,2.61-1.39,14.31,14.31,0,0,0,4.15-4.15,14.2,14.2,0,0,0,1.39-2.61,15.48,15.48,0,0,0,.87-2.81,15.63,15.63,0,0,0,0-5.89,15.48,15.48,0,0,0-.87-2.81,15,15,0,0,0-3.25-4.88,15.2,15.2,0,0,0-2.29-1.87,14.87,14.87,0,0,0-2.61-1.4,16,16,0,0,0-2.81-.85,14.61,14.61,0,0,0-5.89,0,16.51,16.51,0,0,0-2.81.85,14.7,14.7,0,0,0-2.59,1.4,14.27,14.27,0,0,0-2.29,1.87,14.12,14.12,0,0,0-1.87,2.27,14.83,14.83,0,0,0-1.39,2.61,15.45,15.45,0,0,0-.86,2.81,15.1,15.1,0,0,0,0,5.89,15.45,15.45,0,0,0,.86,2.81,14.83,14.83,0,0,0,1.39,2.61,15.2,15.2,0,0,0,1.87,2.29,14.21,14.21,0,0,0,2.29,1.86,14,14,0,0,0,2.59,1.39,14.19,14.19,0,0,0,2.81.85,14.69,14.69,0,0,0,3,.3m-97.08-50.36a15.09,15.09,0,1,1,.07,0Zm41.9.16a15.08,15.08,0,1,1,.05,0ZM466,412a15.05,15.05,0,1,1,20.31,6.38v0A15,15,0,0,1,466,412m124.7,11.74h0a15.08,15.08,0,1,1,10.12,3.9,15,15,0,0,1-10.12-3.9M450.22,451.4a15,15,0,0,1-10.75-18.35h0a15.05,15.05,0,0,1,29.13,7.61l0,0A15.07,15.07,0,0,1,454,451.91a14.91,14.91,0,0,1-3.81-.51m1.95,42.37a15,15,0,0,1-15-15.12h0a15.06,15.06,0,1,1,30.12.15h0a15,15,0,0,1-15,15Zm-.21,42a15.1,15.1,0,1,1,.08,0Zm-13,30.61h0a15.06,15.06,0,0,1,29.14-7.6v0a15.05,15.05,0,0,1-29.14,7.58m150.22,30.71a15.06,15.06,0,1,1,11.1,4.9,15,15,0,0,1-11.1-4.9M471.88,607.74a15.05,15.05,0,1,1,7,1.71,15.06,15.06,0,0,1-7-1.71m32.89-7.66a15.05,15.05,0,1,1,15.05,15.06,15,15,0,0,1-15.05-15.06m41.86,0a15.07,15.07,0,1,1,15,15.06,15.07,15.07,0,0,1-15-15.06m70-35.12a14.59,14.59,0,0,0,2.94-.3,16,16,0,0,0,2.81-.86,15.52,15.52,0,0,0,2.61-1.39,14.64,14.64,0,0,0,2.28-1.87,13,13,0,0,0,1.87-2.29,14.35,14.35,0,0,0,1.39-2.59,14.7,14.7,0,0,0,.87-2.83,15.06,15.06,0,0,0-6.41-15.45,14.78,14.78,0,0,0-2.61-1.38,14.73,14.73,0,0,0-11.5,0,14.35,14.35,0,0,0-2.6,1.38,14.83,14.83,0,0,0-2.29,1.87,15.05,15.05,0,0,0,0,21.29,14.27,14.27,0,0,0,2.29,1.87,15.05,15.05,0,0,0,2.6,1.39,16.17,16.17,0,0,0,2.8.86,14.69,14.69,0,0,0,3,.3M150.43,615.82a14.62,14.62,0,0,0,2.95-.3,14.08,14.08,0,0,0,2.82-.85,14.44,14.44,0,0,0,2.6-1.39,15.21,15.21,0,0,0,4.16-4.15,14.11,14.11,0,0,0,1.37-2.61,14.51,14.51,0,0,0,.87-2.81,15.1,15.1,0,0,0,0-5.89,14.64,14.64,0,0,0-.87-2.8,13.8,13.8,0,0,0-1.37-2.61,15.24,15.24,0,0,0-1.87-2.28,14.08,14.08,0,0,0-2.29-1.87,13.84,13.84,0,0,0-2.6-1.39,14.11,14.11,0,0,0-2.82-.86,14.61,14.61,0,0,0-5.89,0,14,14,0,0,0-2.81.86,13.45,13.45,0,0,0-2.59,1.39,12.56,12.56,0,0,0-2.29,1.87,15,15,0,0,0,0,21.27,13,13,0,0,0,2.29,1.88,14.8,14.8,0,0,0,5.4,2.24,14.67,14.67,0,0,0,2.94.3M135.38,444.21a15.06,15.06,0,1,1,15.05,15.05,15.06,15.06,0,0,1-15.05-15.05m0,39.14a15.06,15.06,0,1,1,15.05,15,15.06,15.06,0,0,1-15.05-15m0,39.14a15.06,15.06,0,1,1,15.05,15,15.06,15.06,0,0,1-15.05-15m0,39.14a15.06,15.06,0,1,1,15.05,15,15.06,15.06,0,0,1-15.05-15m15.05-141.51a14.62,14.62,0,0,0,2.95-.3,14.08,14.08,0,0,0,2.82-.85,14.44,14.44,0,0,0,2.6-1.39,15,15,0,0,0,6.4-15.45,14.51,14.51,0,0,0-.87-2.81,14.11,14.11,0,0,0-1.37-2.61,15.24,15.24,0,0,0-1.87-2.28,14.08,14.08,0,0,0-2.29-1.87,14.44,14.44,0,0,0-2.6-1.39,14.83,14.83,0,0,0-2.82-.87,15.36,15.36,0,0,0-5.89,0,14.73,14.73,0,0,0-2.81.87,14,14,0,0,0-2.59,1.39,12.56,12.56,0,0,0-2.29,1.87,14.71,14.71,0,0,0-1.88,2.28,17.12,17.12,0,0,0-1.39,2.61,16,16,0,0,0-.85,2.81,14.56,14.56,0,0,0,0,5.88,16,16,0,0,0,.85,2.81,17.12,17.12,0,0,0,1.39,2.61,14.71,14.71,0,0,0,1.88,2.28,13.44,13.44,0,0,0,2.29,1.87,14.8,14.8,0,0,0,5.4,2.24,14.67,14.67,0,0,0,2.94.3m24,29.08a15.05,15.05,0,1,1,10.62,4.38,15.07,15.07,0,0,1-10.62-4.38m33.58,33.43a15,15,0,1,1,10.63,4.4,15,15,0,0,1-10.63-4.4m44.21,37.85a14.57,14.57,0,0,0,2.93-.3,14.17,14.17,0,0,0,2.83-.85,16.14,16.14,0,0,0,2.59-1.39,15.21,15.21,0,0,0,4.16-4.15,15.92,15.92,0,0,0,1.39-2.61,15.18,15.18,0,0,0,.85-2.81,15.1,15.1,0,0,0,0-5.89,15.66,15.66,0,0,0-.85-2.81,15.92,15.92,0,0,0-1.39-2.61,16.27,16.27,0,0,0-1.87-2.29,14.6,14.6,0,0,0-2.29-1.85,15,15,0,0,0-5.42-2.25,14.51,14.51,0,0,0-5.87,0,15,15,0,0,0-5.42,2.25,15.08,15.08,0,0,0-2.29,1.85,17,17,0,0,0-1.87,2.29,15.92,15.92,0,0,0-1.39,2.61,15.66,15.66,0,0,0-.85,2.81,13.92,13.92,0,0,0-.29,2.95,15.06,15.06,0,0,0,15,15.05m56.14-71a15.1,15.1,0,1,1,10.67,4.42,15.06,15.06,0,0,1-10.67-4.42M275,482.76a15.08,15.08,0,1,1,10.68,4.43A15,15,0,0,1,275,482.76m78.57-62.12a14.67,14.67,0,0,0,2.94-.3,15.18,15.18,0,0,0,2.81-.85,14.7,14.7,0,0,0,2.59-1.39,13.44,13.44,0,0,0,2.29-1.87,14.16,14.16,0,0,0,1.88-2.28,17.6,17.6,0,0,0,1.39-2.61,15.18,15.18,0,0,0,.85-2.81,14.59,14.59,0,0,0,.3-2.94,15.13,15.13,0,0,0-4.42-10.66,13.34,13.34,0,0,0-2.29-1.85,14.07,14.07,0,0,0-2.59-1.39,14.51,14.51,0,0,0-2.81-.87,14.78,14.78,0,0,0-8.7.87,13.62,13.62,0,0,0-2.61,1.39,15.08,15.08,0,0,0-2.29,1.85,15.1,15.1,0,0,0-4.11,13.6,14.51,14.51,0,0,0,.87,2.81A15.09,15.09,0,0,0,341,414a15.88,15.88,0,0,0,1.87,2.28,15.2,15.2,0,0,0,2.29,1.87,14.2,14.2,0,0,0,2.61,1.39,15.66,15.66,0,0,0,2.81.85,14.62,14.62,0,0,0,2.95.3m-15.06,24a15.06,15.06,0,1,1,15.06,15.05,15.06,15.06,0,0,1-15.06-15.05m0,39a15.06,15.06,0,1,1,15.06,15,15.05,15.05,0,0,1-15.06-15m0,39a15.06,15.06,0,1,1,15.06,15.07,15,15,0,0,1-15.06-15.07m0,39a15.06,15.06,0,1,1,15.06,15,15,15,0,0,1-15.06-15m15.06,54.09a14.82,14.82,0,0,0,2.94-.3,13.8,13.8,0,0,0,2.81-.85,14.7,14.7,0,0,0,2.59-1.39,13.39,13.39,0,0,0,2.29-1.86,15.12,15.12,0,0,0,4.42-10.65,14.62,14.62,0,0,0-.3-2.95,15.32,15.32,0,0,0-.85-2.8,16.66,16.66,0,0,0-1.39-2.61,14.16,14.16,0,0,0-1.88-2.28,12.56,12.56,0,0,0-2.29-1.87,14.07,14.07,0,0,0-2.59-1.39,13.83,13.83,0,0,0-2.81-.86,14.6,14.6,0,0,0-5.89,0,14.22,14.22,0,0,0-2.81.86,13.62,13.62,0,0,0-2.61,1.39,14.08,14.08,0,0,0-2.29,1.87,15.88,15.88,0,0,0-1.87,2.28,14.4,14.4,0,0,0-1.37,2.61,14.64,14.64,0,0,0-.87,2.8,15.1,15.1,0,0,0,4.11,13.6,15.14,15.14,0,0,0,2.29,1.86,15.09,15.09,0,0,0,5.42,2.24,14.62,14.62,0,0,0,2.95.3"/><path d="M947.76,1103.89c17.09,0,29.9,13.53,29.9,30.61s-13.52,30.61-29.9,30.61H932.1v-61.22Zm-37-19.23v99.68h37c29.19,0,51.25-22.07,51.25-49.84s-22.06-49.84-51.25-49.84Zm-103.22,80.45V1143H848.1v-19.22H807.53v-19.93h52v-19.23H786.17v99.68h74.75v-19.23Zm-98.24,19.23h21.36v-99.68H709.29Zm-121.72-99.68v99.68h21.35v-39.16H649.5V1126H608.92v-22.07h52v-19.23Zm-76.87,99.68h21.35v-99.68H510.7Zm-123.87-99.68v19.23h28.48v80.45h21.35v-80.45h28.47v-19.23Zm-61.22,32.76c0,7.11-5.69,12.81-13.52,12.81H290v-26.34h22.07a13.08,13.08,0,0,1,13.52,13.53m-56.95,66.92H290v-34.89h18.51l19.22,34.89h22.78l-21.36-37.74a32.24,32.24,0,0,0,17.8-29.18c0-18.23-14.24-32.76-34.17-32.76H268.66Zm-103.21-19.23V1143H206v-19.22H165.45v-19.93h52v-19.23H144.09v99.68h74.75v-19.23ZM55.11,1082.53c-30.61,0-54.1,23.49-54.1,52s23.49,52,54.1,52a53.69,53.69,0,0,0,42-19.93L84.3,1153a37.23,37.23,0,0,1-29.19,14.24,32.75,32.75,0,0,1,0-65.5A34.53,34.53,0,0,1,82.87,1116l13.53-13.53s-13.53-19.93-41.29-19.93"/></svg>