<svg xmlns="http://www.w3.org/2000/svg" viewBox="0 0 1030 677"><g fill="none" stroke-width="2"><path stroke="#8093a8" d="M426 138.79v59.17" vector-effect="non-scaling-stroke"/><path stroke="#80d9d7" d="m426 197.96-103.05 59.53a.96.95 77.4 0 0-.47.75q-.92 13.99.26 21.51c1.83 11.71 15.79 17.41 25.09 22.66a1.09 1.07-44.8 0 0 1.07-.01l77.06-44.4" vector-effect="non-scaling-stroke"/><path stroke="#8093a8" d="M425.96 258c.05 10.13-1.96 22.77 4.63 30.87 4.31 5.31 14.35 9.8 20.91 13.93" vector-effect="non-scaling-stroke"/><path stroke="#80d9d7" d="m451.5 302.8-50.89 29.45a.29.29 44.4 0 0 .01.5q7.49 4.41 39.8 23.1c8.7 5.04 15.79 3.96 24.46-1q19.42-11.1 38.79-22.28" vector-effect="non-scaling-stroke"/><path stroke="#8093a8" d="M503.67 332.57q20.09 11.67 39.9 23.1c12.24 7.06 19.27 2.4 31.58-4.69q46.74-26.94 93.43-53.94c9.41-5.44 16.17-10.11 16.17-20.79v-47.59a.47.47 74.6 0 0-.7-.4l-102.6 59.11" vector-effect="non-scaling-stroke"/><path stroke="#80d9d7" d="M581.45 287.37q-.32-28.75-.24-57.31 0-.28-.5-1.31" vector-effect="non-scaling-stroke"/><path stroke="#8093a8" d="M580.71 228.75c.19-.23.59-.77.84-.92q51.37-29.67 102.74-59.35a.87.86 75 0 0 .43-.75c.11-11.59 2.59-26.83-8.8-34.42q-3.22-2.14-16.75-9.64a.9.86 43.8 0 0-.86 0q-37.72 21.77-75.38 43.49-.91.52-1.89.84" vector-effect="non-scaling-stroke"/><path stroke="#80d9d7" d="M581.04 168c.68-15.94 2.9-28.01-11.99-36.61q-6.74-3.9-13.3-8.1" vector-effect="non-scaling-stroke"/><path stroke="#8093a8" d="m555.75 123.29 50.67-29.35a.44.44 90 0 0 0-.76q-19.14-11.16-38.35-22.13c-9.58-5.46-15.74-5.67-25.66.06q-19.7 11.37-39.2 22.54" vector-effect="non-scaling-stroke"/><path stroke="#80d9d7" d="M503.21 93.65c-13.22-8.12-26.73-15.41-39.76-23.39-8.97-5.49-16.33-3.9-25.33 1.28Q387.01 101 335.94 130.52c-13.29 7.68-13.61 13.75-13.68 29.5q-.05 10.72.2 21.43c.11 4.59-.53 10.75.01 16.17a.32.31 72.4 0 0 .46.25l102.35-59.06a.71.48 26.5 0 1 .45-.06l.27.04" vector-effect="non-scaling-stroke"/><path stroke="#006d80" d="M503.21 93.65q-38.16 22.24-76.38 44.2-.37.21-.83.94m129.75-15.5L426 197.96M581.04 168q-.3.47-1.1.94-58.86 33.83-153.98 89.06m154.75-29.25c-.41-.03-.8-.02-1.18.19q-64.02 36.95-128.03 73.86m52.17 29.77q36.81-21.43 73.77-42.63.67-.39 4.01-2.57" vector-effect="non-scaling-stroke"/><path stroke="#8093a8" d="M376.5 474.52c-7.01-2.34-15.69-8.9-10.1-17.21 8.09-12.01 31.54-3.95 40.87 1.96a.57.41 31 0 0 .71-.06l9.24-16.23a.58.55 33.5 0 0-.17-.74c-23.05-17.02-78.43-16.59-75.8 24.69 1.46 22.91 28.67 28.25 45.96 34.33 13.05 4.58 11.06 19.12-1.72 21.49-12.89 2.39-26.31-.42-38.73-6.54a.54.51-66.6 0 0-.72.31l-6.63 17.91a.67.64-65.4 0 0 .28.81c16.95 9.26 41.95 13.68 60.31 5.75q21.91-9.47 20.18-34.16c-1.46-20.86-26.66-26.61-43.68-32.31M61.74 453.75l.03 87.5q0 1.9 1.72 2.13c3.94.52 17.21-8.73 21.09-11.16a.89.82-17.1 0 0 .42-.72v-77.75a.5.5 0 0 1 .5-.5h32.25a.5.5 0 0 0 .5-.5v-18.5a.5.5 0 0 0-.5-.5h-88.5a.77.49-.3 0 0-.77.5l.2 18.31a.7.57 89.5 0 0 .57.69h32a.5.49 90 0 1 .49.5m94.26 52.5 17.94.01a1.06.46 64.5 0 1 .68.59l21.42 35.62a1.01.67 68.8 0 0 .71.5l24.75.09q.48 0 .18-.49l-25.2-40.31a.53.47-28.8 0 1 .25-.69q22.47-11.48 20.06-37.59c-1.95-21.06-18.47-29.94-38.05-30.21q-8.97-.12-45.71.02a.53.46 0 0 0-.53.46v108.5a.5.28 0 0 0 .5.28l21.75-.01a.66.52 0 0 0 .66-.52l.13-35.75a.5.46-90 0 1 .46-.5m80.36 16.28c7.64 24.94 43.98 25.91 64.11 19.92 15.2-4.52 23.09-14.49 23.06-29.98q-.06-39.08-.03-78.16a.56.55-87.2 0 0-.49-.56c-4.99-.5-17.32 8.05-21.93 10.94a.87.87 72.5 0 0-.4.77c1.12 22.04-.17 43.31.11 68.54.13 12.36-20.79 11.83-29.05 10.52-4.99-.79-13.97-2.17-13.98-8.83q-.02-40.69-.01-81.38a.54.54 2.3 0 0-.5-.54c-2.22-.17-3.63-.22-5.67.95q-8.17 4.68-16.18 9.79a.92.88 74.7 0 0-.42.77q.05 31.8 0 63.56-.02 9.15 1.38 13.69m225.89-68.78v88.75a.79.76 88.6 0 0 .8.79c1.73-.1 3.47-.05 5.04-.98q8.18-4.81 16.58-9.97a.71.69-16.8 0 0 .33-.59v-78a.5.5 0 0 1 .5-.5h32.25a.5.5 0 0 0 .5-.5v-18.5a.5.5 0 0 0-.5-.5H429.5a.77.5 0 0 0-.77.5l.06 18.5a.5.46 90 0 0 .46.5h32.5a.5.5 0 0 1 .5.5" vector-effect="non-scaling-stroke"/><path stroke="#a1acc0" d="M627.57 543.2a.32.32 0 0 1-.32-.32v-65.59a.32.32-32.2 0 0-.61-.13l-29.43 62.69a.32.32 12.4 0 1-.29.18l-12.53.04a.32.32 77.2 0 1-.29-.19l-28.74-61.66a.32.32 33.3 0 0-.61.13l-.02 64.58a.32.32-89.9 0 1-.32.32h-21.34a.32.32 0 0 1-.32-.32V434.07a.32.32 90 0 1 .32-.32h21.47a.32.32 77.6 0 1 .29.18l36.32 77.89a.32.32 44.7 0 0 .59-.01l35.01-77.87a.32.32 12.1 0 1 .29-.19h21.93a.32.32.4 0 1 .32.32l-.27 108.77a.32.32 0 0 1-.32.32l-21.13.04m113.19.03a.31.31 80.1 0 1-.29-.21l-28.62-82.13a.31.31-45.1 0 0-.59 0l-28.04 82.03a.31.31 9.3 0 1-.29.21l-23.54.11a.31.31-79.7 0 1-.29-.42l40.82-108.87a.31.31 10.1 0 1 .29-.2h22.92a.31.31 79.2 0 1 .29.2l41.89 108.68a.31.31-10.3 0 1-.29.42l-24.26.18m76.68-36.17 21.5 35.75a.94.93-15 0 0 .81.46l23.75-.1q1.33 0 .57-1.22l-24.8-39.71a.48.47-28.7 0 1 .2-.68q18.94-9.03 20.3-30.28c1.62-25.39-15.36-37.18-38.78-37.51q-9.22-.13-45.22.02a.53.46-.6 0 0-.52.46v108.5a.5.5 0 0 0 .5.5h22a.5.5 0 0 0 .5-.5v-36a.51.5-90 0 1 .5-.51l18.07.03a1.09.15 59.9 0 1 .62.79m83.12-71.45a.37.37 0 0 0-.37-.37h-22.82a.37.37 0 0 0-.37.37v108.52a.37.37 0 0 0 .37.37h22.82a.37.37 0 0 0 .37-.37V435.61m30.21 50.16 42.96-50.05q.41-.48-.29-.48l-29.44.01a1.21.82-63.5 0 0-.8.45l-41.93 51.33a1.4 1.32-45.7 0 0-.03 1.74q23.3 27.38 45.77 55.46a1.03.79-14.8 0 0 .74.31l28.75-.06q.74 0 .31-.54l-46.02-57.23a.77.7 46.6 0 1-.02-.94m-14.47 86.86a5.47 5.47 0 0 0-5.47-5.47 5.47 5.47 0 0 0-5.47 5.47 5.47 5.47 0 0 0 5.47 5.47 5.47 5.47 0 0 0 5.47-5.47m-361.51 13.75c-20.73-15.75-31.96 21.09-16.73 30.56q8.77 5.45 17.3-2.63.5-.48.59.46l.26 2.73a.81.55-1.8 0 0 .79.5h5.75a.5.5 0 0 0 .5-.5v-49.25a.33.23-13.6 0 0-.43-.17l-6.8 2.47a.77.72 81.2 0 0-.48.7l-.14 15q0 .59-.61.13m175.01-.01q-5.56-4.35-11.46-3.59c-12.55 1.63-14.51 18.35-10.67 27.86 3.76 9.32 15.16 11.34 21.75 4.03q.59-.67 1.05-.32a1.18.41-87 0 1 .26.9l.07 2.19a.7.58-.8 0 0 .7.56h6a.75.51 90 0 0 .51-.75l.23-47.75a1.22 1.2-10 0 0-1.64-1.13l-5.86 2.13a.82.74 80.8 0 0-.49.75v15q.01.48-.45.12m164.61 25.29a1.92 1.18-89.6 0 1-1.15-1.91l-.01-41.5a.4.29-12.6 0 0-.52-.22l-6.56 2.37a1.83 1.64-11.8 0 0-1.22 1.65q.62 18.67.58 36.74c-.02 8.98 5.45 11.33 13.45 9.05a.79.46-13.8 0 0 .62-.6l-.7-5.06a.69.44-.8 0 0-.64-.4l-3.85-.12m-100.98 6.16 3.45 5.33a.66.49 55.4 0 0 .81.28l4.6-3.64a.72.52 54.8 0 0 .01-.85l-3.85-5.88a1.03.76-50.2 0 1 .06-.97q8.17-13.67 3.2-29.07c-5.24-16.2-26.5-18.69-34.17-3.22-7.09 14.28-3.31 39.89 17.86 39.13 2.32-.09 4.84-1.12 7.29-1.54a.89.62 65.1 0 1 .74.43M88.2 614.76l.22 2.99a.58.54-2.1 0 0 .58.5h5.75a.5.49-90 0 0 .49-.5l.03-24.31a.52.41 0 0 0-.52-.41L78 592.95a.78.54.1 0 0-.79.55l.15 6.31a.64.45-.4 0 0 .64.44h8.5a.74.69 85.7 0 1 .69.64q.71 5.15-3.71 7.85c-22.01 13.39-24.67-37.19-2.23-30.18 2.7.84 4.79 2.83 6.45 5.03a.77.75 53.7 0 0 1.05.17l5.56-3.96a.74.67 54.6 0 0 .12-1q-7.34-10.16-18.77-9.01c-16.95 1.7-20.84 19.54-17.91 33.2q3.77 17.56 21.02 15.79c3.34-.34 6.07-2.64 8.98-4.23a.31.28-17.4 0 1 .45.21m394.05-17.6a.36.36 1.3 0 1-.36.34h-18.78a.36.36 89.7 0 0-.36.36l.07 12.05a.36.36 89.2 0 0 .36.36l22.28-.08a.36.36-89.1 0 1 .36.38l-.32 7.34a.36.36-87.1 0 1-.35.34h-30.54a.36.36 0 0 1-.36-.36v-47.28a.36.36 89.8 0 1 .36-.36h30.59a.36.36-89.4 0 1 .36.37l-.22 7.03a.36.36-88.9 0 1-.36.35H463.3a.36.36-.1 0 0-.36.36l-.06 11.28a.36.36-89.8 0 0 .36.36h18.97a.36.36-88.7 0 1 .36.38l-.32 6.78m-60.15-14.41.18-9a.65.64-9.2 0 0-.86-.61l-6.45 2.28a.93.69 82.9 0 0-.47.83V583a.5.5 0 0 1-.5.5h-4.75a.5.5 0 0 0-.5.5v5.25a.68.42 89.3 0 0 .44.69l4.06-.22a.96.82-1.3 0 1 1.01.82c-.03 5.47-1.31 19.56 1.18 24.05 2.53 4.53 8.86 4.61 13.33 3.07a.75.55-16 0 0 .52-.67l-.9-4.92a.63.54-8.6 0 0-.69-.43l-2.98.41q-2.46.33-2.46-3.55l-.01-18a.71.49-89.6 0 1 .5-.71l6 .08a.74.62.4 0 0 .75-.62V584a.51.48.6 0 0-.5-.48l-6.57-.07a.69.35-88.3 0 1-.33-.7m504.12 7.57q.54 9.33.37 18.68c-.15 9.09 6.81 10.95 14.3 8.74a.85.59-14.6 0 0 .64-.75l-.9-5.06a.74.49-16 0 0-.9-.29q-2.6.89-4.75-.56a1.09.82-78.4 0 1-.39-.83l-.13-19.75a.79.76 0 0 1 .79-.76l6 .01a.52.44-88.7 0 0 .44-.5l.24-5.25a.48.43-88.7 0 0-.43-.5H935a.5.5 0 0 1-.5-.5v-9.5a.5.38 82.5 0 0-.51-.52l-6.76 2.47a.89.73 81.7 0 0-.48.8v6.5a.75.5-90 0 1-.5.75H922a.97.84 89.3 0 0-.85 1l.14 5a.48.43 87 0 0 .46.46l4-.27a.66.43 86.4 0 1 .47.63m-807.26 28.91a18.36 15.87 90 0 0 15.87-18.36 18.36 15.87 90 0 0-15.87-18.36 18.36 15.87 90 0 0-15.87 18.36 18.36 15.87 90 0 0 15.87 18.36m85.53-16.56c.94-11.52-5.51-23.41-18.97-19.27-16.7 5.14-15.05 35.13 3.96 35.79q9.77.33 14.7-7.75a.77.64-57.9 0 0-.13-.98l-5-3.29a.79.5-55.5 0 0-.85.36c-4.71 6.78-15.8 6.21-15.8-3.7a.6.58 0 0 1 .6-.58h20.75a.75.63 2 0 0 .74-.58m15.3-15.68-.3-2.99a.76.55-2 0 0-.74-.5h-5.5a.5.5 0 0 0-.5.5v33.75a.5.5 0 0 0 .5.5H220a.63.56 89.5 0 0 .56-.64q-.09-7.93-.07-15.79c.03-6.92 1.66-12.64 9.96-10.97a.69.54 12.8 0 0 .77-.36l1.65-5.96a.75.63 21.2 0 0-.43-.77c-5.8-2.73-7.97.14-12.23 3.38q-.38.29-.42-.15m27.73.26-.32-3.5a.54.44 87.3 0 0-.45-.5h-6.25a.5.5 0 0 0-.5.5v34a.5.49 0 0 0 .5.49l6.69.04a.62.57 1 0 0 .62-.55q.32-9.29.19-18.58c-.12-8 11.45-12.99 12.55-4.14q.46 3.72.19 22.44a.53.52-88.9 0 0 .51.54l6.94.04a.63.51.9 0 0 .63-.49c.39-7.31 1.59-24.81-2.63-30.84-4.22-6.04-13.16-4.76-18.04.62q-.57.62-.63-.07m96.67 16.02 21.31-.03a.57.51 3.4 0 0 .56-.44c3.76-28.94-36.68-25.51-29.65 4.2 3.37 14.24 20.44 16.02 28.92 5.25a1.56 1.31-54.4 0 0-.16-2.14l-4.64-2.91a.79.51-55.9 0 0-.84.36c-4.69 6.74-15.41 6.13-15.86-3.49a.77.38 87.7 0 1 .36-.8m37.8-16.03.02-3.24a.73.58 90 0 0-.58-.73l-6.43-.03a.51.5-90 0 0-.5.51v34a.5.5 0 0 0 .5.5h7a.54.48 90 0 0 .48-.54c.02-4.97-1.18-18.73.9-22.61 1.76-3.28 6.2-6.38 9.62-3.81 3.97 2.98 2.5 21.08 2.53 26.16a.55.47 90 0 0 .47.55h6.75a.56.47-89.4 0 0 .47-.55q.16-15.27-.05-23.42c-.32-12.54-13.01-14.32-20.75-6.7q-.44.43-.43-.09m119.93-.19.11-3.3a.53.49.5 0 0-.53-.5H495a.5.5 0 0 0-.5.5v34a.5.5 0 0 0 .5.5h7a.56.48-89.4 0 0 .48-.55c.03-5.48-1.23-18.07.88-22.67 2.92-6.34 11.4-6.91 11.82 2.09q.48 10.21.36 20.47a.46.46-89.4 0 0 .46.47l6.81-.04a.58.45 1 0 0 .57-.43q.39-9.69-.03-19.36c-.43-9.97-2.94-17.64-14.8-14.98q-1.52.34-6.09 3.88-.56.43-.54-.08m85.672 32.16a18.33 15.9 89.9 0 0 15.868-18.358 18.33 15.9 89.9 0 0-15.932-18.302 18.33 15.9 89.9 0 0-15.868 18.358 18.33 15.9 89.9 0 0 15.932 18.302m30.948-32.22-.3-2.99a.76.55-2 0 0-.74-.5H612a.51.5-89.4 0 0-.5.5l-.19 33.56a.69.44 90 0 0 .44.69h7a.56.48 90 0 0 .48-.56q.04-9.28.02-18.57c-.01-5.16 4.04-10.74 9.76-8.06a.56.53 21.3 0 0 .76-.31l1.85-6.08a.65.57 24.6 0 0-.31-.69c-5.3-3.1-8.45-.26-12.37 3.13q-.36.31-.4-.12m35.71 21.26c-2.75 6.25-10.01 3.71-13.03-.83a.49.48-33.7 0 0-.69-.13l-4.92 3.35a.63.61-30.4 0 0-.22.79c4.88 9.97 22.93 10.72 26.3-.77 1.43-4.88-.3-8.94-4.92-11.3-3.03-1.54-9.4-2.55-10.96-4.21-4.48-4.77 5.43-7.3 9.56-1.57a.7.42 54.5 0 0 .74.32l5.36-3.67a.68.41 55.9 0 0-.04-.8c-5.84-8.42-21.13-10.03-24.23 1.9-2.66 10.26 8.33 11.57 15.24 14.19q2.58.97 1.81 2.73m38.22-.72c-5.1 6.92-15.53 6.04-15.83-3.72a.61.54-.9 0 1 .61-.56h21a.66.6 2.4 0 0 .65-.55c.67-8.04-2.01-17.44-10.55-19.48-20.31-4.86-26.5 24.96-12.6 33.54 7.38 4.57 18.22 2.54 22.6-5.35a.89.54-59.7 0 0-.02-1l-5.03-3.24a.79.48-54.4 0 0-.83.36m-384.95-9.79c.03-7.48 12.23-11.68 12.22-.99q-.01 10.46.03 20.95a.55.48-90 0 0 .48.55h7.25a.57.47-89.4 0 0 .47-.56q.19-17.46-.05-22.87c-.39-8.92-7.22-14.5-15.93-10.9-2.27.94-4.06 3.03-5.9 4.77a.37.37 54.4 0 1-.58-.1c-3.85-7.21-13.71-7.57-18.54-1.1q-.85 1.14-1.04-.22l-.45-3.27a.58.47 85.2 0 0-.48-.5h-6a.54.5 0 0 0-.54.5l.06 33.75a.5.48 90 0 0 .48.5h7.25a.55.48 90 0 0 .48-.55q.04-9.24.02-18.48c-.03-8.74 12.47-14.59 12.49-.83q.01 9.64.03 19.3a.56.48-90 0 0 .48.56H307a.56.49-89.4 0 0 .49-.55q0-9.99.03-19.96m562.25 17.25.5 2.76a.6.46 83.6 0 0 .48.5h5.5a.55.46 90 0 0 .46-.55q.21-16.06-.06-22.37c-.6-14.32-16.71-15.6-25.31-8.19a.62.44-38.8 0 0-.2.7l3.06 4.46a1.12 1.08-35 0 0 1.55.24c3.72-2.61 14.1-5.41 12.98 3.18a.57.57 3.4 0 1-.57.5q-8.07-.01-11.93 1.51c-17.22 6.82-1.9 31.49 12.58 17.02q.78-.78.96.24m-36.31-.24.42 3.07a.64.5-3 0 0 .62.43h6a.57.5 0 0 0 .57-.5l.08-33.5a.75.65 90 0 0-.65-.75h-7a.57.48 90 0 0-.48.57q-.04 8.8-.02 17.62.01 3.1-.55 4.57c-2.02 5.25-10.46 8.3-11.91.8-1.29-6.7-.26-16.09-.36-23.12a.48.47-1.2 0 0-.49-.46l-6.94.03a.55.41-88.6 0 0-.42.53q-.63 18.52.38 26.19c1.39 10.53 14.02 11.1 20.1 4.33q.54-.61.65.19m-679.16-8.68a.31.31 46.8 0 0 .59 0l7.2-22.36a.31.31 8.3 0 1 .3-.21h8.34a.31.31 10.5 0 1 .29.42l-12.87 34.13a.31.31-79.7 0 1-.29.2h-6.51a.31.31 79.7 0 1-.29-.2l-12.9-34.13a.31.31-10.6 0 1 .29-.42h8.35a.31.31 80.7 0 1 .3.22l7.2 22.35m752.7-15.9a.51.51 88.4 0 0-.58-.5l-2.34.31a.51.51-86.7 0 1-.58-.5v-5.47a.51.51 0 0 1 .51-.51h10.45a.51.51 89.8 0 1 .51.51l.04 33.73a.51.51 89 0 1-.51.51h-6.99a.51.51 0 0 1-.51-.51v-27.57m54.91 16.03-7.09-22.01a.99.81 79.5 0 0-.82-.69h-7.5a.51.48 79 0 0-.43.69l12.23 32.29a1.65 1.16 52.8 0 1 .04 1.1l-2.42 5.84q-1.16 2.78-3.58 2.03l-2.57-.8a.66.44-78.5 0 0-.59.59l-.86 5.27a.67.62 16.1 0 0 .42.69c5.41 2.1 12.63.93 14.79-4.94q3.35-9.15 14.78-42.22a.41.35-79.4 0 0-.31-.54h-8a.7.48-77.8 0 0-.52.49l-7.02 22.2q-.28.86-.55.01" vector-effect="non-scaling-stroke"/><path stroke="#8093a8" d="M192.12 464.99c-2.08-14.86-26.05-11.87-36.08-11.69a.55.45-.6 0 0-.54.45v32a.55.47.6 0 0 .54.47c15.59.06 39.59 3.89 36.08-21.23" vector-effect="non-scaling-stroke"/><path stroke="#a1acc0" d="M834.94 465.84c-1.7-15.46-24.37-12.89-36.12-12.47a.63.59 89.1 0 0-.57.63v31.75a.54.46 0 0 0 .54.46c15.37.14 38.81 3.85 36.15-20.37M543.56 610.41q1.63 1.29 3.7 1.06 4.7-.53 7.06-4.5c1.56-2.63 1.5-10.55-.29-13.04q-2.11-2.94-5.54-3.42c-10.08-1.39-11.35 14.81-4.93 19.9m178.154 1.081a10.62 8.13 92.3 0 0 8.55-10.285 10.62 8.13 92.3 0 0-7.698-10.937 10.62 8.13 92.3 0 0-8.55 10.285 10.62 8.13 92.3 0 0 7.698 10.937m66.966-13.421 3.25 4.98q.77 1.17 1.22-.14 3.27-9.47-.75-18.71c-4.12-9.44-13.97-8.56-17.42.73-3.05 8.17-3.03 24.23 8.48 25.88q1.89.27 3.97-1.04a.54.46-32.7 0 0 .2-.68l-4.29-6.72a.83.44 56 0 1-.1-.9l4.54-3.45a.68.55-36.2 0 1 .9.05M119 611.83a10.97 7.63 90.1 0 0 7.65-10.957 10.97 7.63 90.1 0 0-7.61-10.983 10.97 7.63 90.1 0 0-7.65 10.957A10.97 7.63 90.1 0 0 119 611.83m77.38-15.24c-1.44-9.73-11.98-8.22-13.75.39a.43.39-83.4 0 0 .37.52h12.5a.88.8-3.7 0 0 .88-.91m157.98-5.96q-2.25-1.67-4.91-.47-4.31 1.93-5.17 6.62a.64.51-83.5 0 0 .47.75l13-.09a.57.45 83.2 0 0 .41-.67q-.68-3.82-3.8-6.14m233.22 21.18a10.95 7.61 90 0 0 7.61-10.95 10.95 7.61 90 0 0-7.61-10.95 10.95 7.61 90 0 0-7.61 10.95 10.95 7.61 90 0 0 7.61 10.95m103.05-14.93c-.05-9.05-11.85-9.3-13.63 0a.52.51-84.4 0 0 .5.62h12.75a.61.38 89.3 0 0 .38-.62m166.47 9.63c-2.92 8.5 13.87 7.4 11.55-4.13a.66.65 84.8 0 0-.61-.52c-3.8-.16-9.4.16-10.94 4.65" vector-effect="non-scaling-stroke"/></g><path fill="#fff" d="M0 0h1030v677H0V0Zm426 138.79v59.17l-103.05 59.53a.96.95 77.4 0 0-.47.75q-.92 13.99.26 21.51c1.83 11.71 15.79 17.41 25.09 22.66a1.09 1.07-44.8 0 0 1.07-.01l77.06-44.4c.05 10.13-1.96 22.77 4.63 30.87 4.31 5.31 14.35 9.8 20.91 13.93l-50.89 29.45a.29.29 44.4 0 0 .01.5q7.49 4.41 39.8 23.1c8.7 5.04 15.79 3.96 24.46-1q19.42-11.1 38.79-22.28 20.09 11.67 39.9 23.1c12.24 7.06 19.27 2.4 31.58-4.69q46.74-26.94 93.43-53.94c9.41-5.44 16.17-10.11 16.17-20.79v-47.59a.47.47 74.6 0 0-.7-.4l-102.6 59.11q-.32-28.75-.24-57.31 0-.28-.5-1.31c.19-.23.59-.77.84-.92q51.37-29.67 102.74-59.35a.87.86 75 0 0 .43-.75c.11-11.59 2.59-26.83-8.8-34.42q-3.22-2.14-16.75-9.64a.9.86 43.8 0 0-.86 0q-37.72 21.77-75.38 43.49-.91.52-1.89.84c.68-15.94 2.9-28.01-11.99-36.61q-6.74-3.9-13.3-8.1l50.67-29.35a.44.44 90 0 0 0-.76q-19.14-11.16-38.35-22.13c-9.58-5.46-15.74-5.67-25.66.06q-19.7 11.37-39.2 22.54c-13.22-8.12-26.73-15.41-39.76-23.39-8.97-5.49-16.33-3.9-25.33 1.28Q387.01 101 335.94 130.52c-13.29 7.68-13.61 13.75-13.68 29.5q-.05 10.72.2 21.43c.11 4.59-.53 10.75.01 16.17a.32.31 72.4 0 0 .46.25l102.35-59.06a.71.48 26.5 0 1 .45-.06l.27.04Zm-49.5 335.73c-7.01-2.34-15.69-8.9-10.1-17.21 8.09-12.01 31.54-3.95 40.87 1.96a.57.41 31 0 0 .71-.06l9.24-16.23a.58.55 33.5 0 0-.17-.74c-23.05-17.02-78.43-16.59-75.8 24.69 1.46 22.91 28.67 28.25 45.96 34.33 13.05 4.58 11.06 19.12-1.72 21.49-12.89 2.39-26.31-.42-38.73-6.54a.54.51-66.6 0 0-.72.31l-6.63 17.91a.67.64-65.4 0 0 .28.81c16.95 9.26 41.95 13.68 60.31 5.75q21.91-9.47 20.18-34.16c-1.46-20.86-26.66-26.61-43.68-32.31ZM61.74 453.75l.03 87.5q0 1.9 1.72 2.13c3.94.52 17.21-8.73 21.09-11.16a.89.82-17.1 0 0 .42-.72v-77.75a.5.5 0 0 1 .5-.5h32.25a.5.5 0 0 0 .5-.5v-18.5a.5.5 0 0 0-.5-.5h-88.5a.77.49-.3 0 0-.77.5l.2 18.31a.7.57 89.5 0 0 .57.69h32a.5.49 90 0 1 .49.5Zm94.26 52.5 17.94.01a1.06.46 64.5 0 1 .68.59l21.42 35.62a1.01.67 68.8 0 0 .71.5l24.75.09q.48 0 .18-.49l-25.2-40.31a.53.47-28.8 0 1 .25-.69q22.47-11.48 20.06-37.59c-1.95-21.06-18.47-29.94-38.05-30.21q-8.97-.12-45.71.02a.53.46 0 0 0-.53.46v108.5a.5.28 0 0 0 .5.28l21.75-.01a.66.52 0 0 0 .66-.52l.13-35.75a.5.46-90 0 1 .46-.5Zm80.36 16.28c7.64 24.94 43.98 25.91 64.11 19.92 15.2-4.52 23.09-14.49 23.06-29.98q-.06-39.08-.03-78.16a.56.55-87.2 0 0-.49-.56c-4.99-.5-17.32 8.05-21.93 10.94a.87.87 72.5 0 0-.4.77c1.12 22.04-.17 43.31.11 68.54.13 12.36-20.79 11.83-29.05 10.52-4.99-.79-13.97-2.17-13.98-8.83q-.02-40.69-.01-81.38a.54.54 2.3 0 0-.5-.54c-2.22-.17-3.63-.22-5.67.95q-8.17 4.68-16.18 9.79a.92.88 74.7 0 0-.42.77q.05 31.8 0 63.56-.02 9.15 1.38 13.69Zm225.89-68.78v88.75a.79.76 88.6 0 0 .8.79c1.73-.1 3.47-.05 5.04-.98q8.18-4.81 16.58-9.97a.71.69-16.8 0 0 .33-.59v-78a.5.5 0 0 1 .5-.5h32.25a.5.5 0 0 0 .5-.5v-18.5a.5.5 0 0 0-.5-.5H429.5a.77.5 0 0 0-.77.5l.06 18.5a.5.46 90 0 0 .46.5h32.5a.5.5 0 0 1 .5.5Zm165.32 89.45a.32.32 0 0 1-.32-.32v-65.59a.32.32-32.2 0 0-.61-.13l-29.43 62.69a.32.32 12.4 0 1-.29.18l-12.53.04a.32.32 77.2 0 1-.29-.19l-28.74-61.66a.32.32 33.3 0 0-.61.13l-.02 64.58a.32.32-89.9 0 1-.32.32h-21.34a.32.32 0 0 1-.32-.32V434.07a.32.32 90 0 1 .32-.32h21.47a.32.32 77.6 0 1 .29.18l36.32 77.89a.32.32 44.7 0 0 .59-.01l35.01-77.87a.32.32 12.1 0 1 .29-.19h21.93a.32.32.4 0 1 .32.32l-.27 108.77a.32.32 0 0 1-.32.32l-21.13.04Zm113.19.03a.31.31 80.1 0 1-.29-.21l-28.62-82.13a.31.31-45.1 0 0-.59 0l-28.04 82.03a.31.31 9.3 0 1-.29.21l-23.54.11a.31.31-79.7 0 1-.29-.42l40.82-108.87a.31.31 10.1 0 1 .29-.2h22.92a.31.31 79.2 0 1 .29.2l41.89 108.68a.31.31-10.3 0 1-.29.42l-24.26.18Zm76.68-36.17 21.5 35.75a.94.93-15 0 0 .81.46l23.75-.1q1.33 0 .57-1.22l-24.8-39.71a.48.47-28.7 0 1 .2-.68q18.94-9.03 20.3-30.28c1.62-25.39-15.36-37.18-38.78-37.51q-9.22-.13-45.22.02a.53.46-.6 0 0-.52.46v108.5a.5.5 0 0 0 .5.5h22a.5.5 0 0 0 .5-.5v-36a.51.5-90 0 1 .5-.51l18.07.03a1.09.15 59.9 0 1 .62.79Zm83.12-71.45a.37.37 0 0 0-.37-.37h-22.82a.37.37 0 0 0-.37.37v108.52a.37.37 0 0 0 .37.37h22.82a.37.37 0 0 0 .37-.37V435.61Zm30.21 50.16 42.96-50.05q.41-.48-.29-.48l-29.44.01a1.21.82-63.5 0 0-.8.45l-41.93 51.33a1.4 1.32-45.7 0 0-.03 1.74q23.3 27.38 45.77 55.46a1.03.79-14.8 0 0 .74.31l28.75-.06q.74 0 .31-.54l-46.02-57.23a.77.7 46.6 0 1-.02-.94Zm-14.47 86.86a5.47 5.47 0 0 0-5.47-5.47 5.47 5.47 0 0 0-5.47 5.47 5.47 5.47 0 0 0 5.47 5.47 5.47 5.47 0 0 0 5.47-5.47Zm-361.51 13.75c-20.73-15.75-31.96 21.09-16.73 30.56q8.77 5.45 17.3-2.63.5-.48.59.46l.26 2.73a.81.55-1.8 0 0 .79.5h5.75a.5.5 0 0 0 .5-.5v-49.25a.33.23-13.6 0 0-.43-.17l-6.8 2.47a.77.72 81.2 0 0-.48.7l-.14 15q0 .59-.61.13Zm175.01-.01q-5.56-4.35-11.46-3.59c-12.55 1.63-14.51 18.35-10.67 27.86 3.76 9.32 15.16 11.34 21.75 4.03q.59-.67 1.05-.32a1.18.41-87 0 1 .26.9l.07 2.19a.7.58-.8 0 0 .7.56h6a.75.51 90 0 0 .51-.75l.23-47.75a1.22 1.2-10 0 0-1.64-1.13l-5.86 2.13a.82.74 80.8 0 0-.49.75v15q.01.48-.45.12Zm164.61 25.29a1.92 1.18-89.6 0 1-1.15-1.91l-.01-41.5a.4.29-12.6 0 0-.52-.22l-6.56 2.37a1.83 1.64-11.8 0 0-1.22 1.65q.62 18.67.58 36.74c-.02 8.98 5.45 11.33 13.45 9.05a.79.46-13.8 0 0 .62-.6l-.7-5.06a.69.44-.8 0 0-.64-.4l-3.85-.12Zm-100.98 6.16 3.45 5.33a.66.49 55.4 0 0 .81.28l4.6-3.64a.72.52 54.8 0 0 .01-.85l-3.85-5.88a1.03.76-50.2 0 1 .06-.97q8.17-13.67 3.2-29.07c-5.24-16.2-26.5-18.69-34.17-3.22-7.09 14.28-3.31 39.89 17.86 39.13 2.32-.09 4.84-1.12 7.29-1.54a.89.62 65.1 0 1 .74.43ZM88.2 614.76l.22 2.99a.58.54-2.1 0 0 .58.5h5.75a.5.49-90 0 0 .49-.5l.03-24.31a.52.41 0 0 0-.52-.41L78 592.95a.78.54.1 0 0-.79.55l.15 6.31a.64.45-.4 0 0 .64.44h8.5a.74.69 85.7 0 1 .69.64q.71 5.15-3.71 7.85c-22.01 13.39-24.67-37.19-2.23-30.18 2.7.84 4.79 2.83 6.45 5.03a.77.75 53.7 0 0 1.05.17l5.56-3.96a.74.67 54.6 0 0 .12-1q-7.34-10.16-18.77-9.01c-16.95 1.7-20.84 19.54-17.91 33.2q3.77 17.56 21.02 15.79c3.34-.34 6.07-2.64 8.98-4.23a.31.28-17.4 0 1 .45.21Zm394.05-17.6a.36.36 1.3 0 1-.36.34h-18.78a.36.36 89.7 0 0-.36.36l.07 12.05a.36.36 89.2 0 0 .36.36l22.28-.08a.36.36-89.1 0 1 .36.38l-.32 7.34a.36.36-87.1 0 1-.35.34h-30.54a.36.36 0 0 1-.36-.36v-47.28a.36.36 89.8 0 1 .36-.36h30.59a.36.36-89.4 0 1 .36.37l-.22 7.03a.36.36-88.9 0 1-.36.35H463.3a.36.36-.1 0 0-.36.36l-.06 11.28a.36.36-89.8 0 0 .36.36h18.97a.36.36-88.7 0 1 .36.38l-.32 6.78Zm-60.15-14.41.18-9a.65.64-9.2 0 0-.86-.61l-6.45 2.28a.93.69 82.9 0 0-.47.83V583a.5.5 0 0 1-.5.5h-4.75a.5.5 0 0 0-.5.5v5.25a.68.42 89.3 0 0 .44.69l4.06-.22a.96.82-1.3 0 1 1.01.82c-.03 5.47-1.31 19.56 1.18 24.05 2.53 4.53 8.86 4.61 13.33 3.07a.75.55-16 0 0 .52-.67l-.9-4.92a.63.54-8.6 0 0-.69-.43l-2.98.41q-2.46.33-2.46-3.55l-.01-18a.71.49-89.6 0 1 .5-.71l6 .08a.74.62.4 0 0 .75-.62V584a.51.48.6 0 0-.5-.48l-6.57-.07a.69.35-88.3 0 1-.33-.7Zm504.12 7.57q.54 9.33.37 18.68c-.15 9.09 6.81 10.95 14.3 8.74a.85.59-14.6 0 0 .64-.75l-.9-5.06a.74.49-16 0 0-.9-.29q-2.6.89-4.75-.56a1.09.82-78.4 0 1-.39-.83l-.13-19.75a.79.76 0 0 1 .79-.76l6 .01a.52.44-88.7 0 0 .44-.5l.24-5.25a.48.43-88.7 0 0-.43-.5H935a.5.5 0 0 1-.5-.5v-9.5a.5.38 82.5 0 0-.51-.52l-6.76 2.47a.89.73 81.7 0 0-.48.8v6.5a.75.5-90 0 1-.5.75H922a.97.84 89.3 0 0-.85 1l.14 5a.48.43 87 0 0 .46.46l4-.27a.66.43 86.4 0 1 .47.63Zm-807.26 28.91a18.36 15.87 90 0 0 15.87-18.36 18.36 15.87 90 0 0-15.87-18.36 18.36 15.87 90 0 0-15.87 18.36 18.36 15.87 90 0 0 15.87 18.36Zm85.53-16.56c.94-11.52-5.51-23.41-18.97-19.27-16.7 5.14-15.05 35.13 3.96 35.79q9.77.33 14.7-7.75a.77.64-57.9 0 0-.13-.98l-5-3.29a.79.5-55.5 0 0-.85.36c-4.71 6.78-15.8 6.21-15.8-3.7a.6.58 0 0 1 .6-.58h20.75a.75.63 2 0 0 .74-.58Zm15.3-15.68-.3-2.99a.76.55-2 0 0-.74-.5h-5.5a.5.5 0 0 0-.5.5v33.75a.5.5 0 0 0 .5.5H220a.63.56 89.5 0 0 .56-.64q-.09-7.93-.07-15.79c.03-6.92 1.66-12.64 9.96-10.97a.69.54 12.8 0 0 .77-.36l1.65-5.96a.75.63 21.2 0 0-.43-.77c-5.8-2.73-7.97.14-12.23 3.38q-.38.29-.42-.15Zm27.73.26-.32-3.5a.54.44 87.3 0 0-.45-.5h-6.25a.5.5 0 0 0-.5.5v34a.5.49 0 0 0 .5.49l6.69.04a.62.57 1 0 0 .62-.55q.32-9.29.19-18.58c-.12-8 11.45-12.99 12.55-4.14q.46 3.72.19 22.44a.53.52-88.9 0 0 .51.54l6.94.04a.63.51.9 0 0 .63-.49c.39-7.31 1.59-24.81-2.63-30.84-4.22-6.04-13.16-4.76-18.04.62q-.57.62-.63-.07Zm96.67 16.02 21.31-.03a.57.51 3.4 0 0 .56-.44c3.76-28.94-36.68-25.51-29.65 4.2 3.37 14.24 20.44 16.02 28.92 5.25a1.56 1.31-54.4 0 0-.16-2.14l-4.64-2.91a.79.51-55.9 0 0-.84.36c-4.69 6.74-15.41 6.13-15.86-3.49a.77.38 87.7 0 1 .36-.8Zm37.8-16.03.02-3.24a.73.58 90 0 0-.58-.73l-6.43-.03a.51.5-90 0 0-.5.51v34a.5.5 0 0 0 .5.5h7a.54.48 90 0 0 .48-.54c.02-4.97-1.18-18.73.9-22.61 1.76-3.28 6.2-6.38 9.62-3.81 3.97 2.98 2.5 21.08 2.53 26.16a.55.47 90 0 0 .47.55h6.75a.56.47-89.4 0 0 .47-.55q.16-15.27-.05-23.42c-.32-12.54-13.01-14.32-20.75-6.7q-.44.43-.43-.09Zm119.93-.19.11-3.3a.53.49.5 0 0-.53-.5H495a.5.5 0 0 0-.5.5v34a.5.5 0 0 0 .5.5h7a.56.48-89.4 0 0 .48-.55c.03-5.48-1.23-18.07.88-22.67 2.92-6.34 11.4-6.91 11.82 2.09q.48 10.21.36 20.47a.46.46-89.4 0 0 .46.47l6.81-.04a.58.45 1 0 0 .57-.43q.39-9.69-.03-19.36c-.43-9.97-2.94-17.64-14.8-14.98q-1.52.34-6.09 3.88-.56.43-.54-.08Zm85.672 32.16a18.33 15.9 89.9 0 0 15.868-18.358 18.33 15.9 89.9 0 0-15.932-18.302 18.33 15.9 89.9 0 0-15.868 18.358 18.33 15.9 89.9 0 0 15.932 18.302Zm30.948-32.22-.3-2.99a.76.55-2 0 0-.74-.5H612a.51.5-89.4 0 0-.5.5l-.19 33.56a.69.44 90 0 0 .44.69h7a.56.48 90 0 0 .48-.56q.04-9.28.02-18.57c-.01-5.16 4.04-10.74 9.76-8.06a.56.53 21.3 0 0 .76-.31l1.85-6.08a.65.57 24.6 0 0-.31-.69c-5.3-3.1-8.45-.26-12.37 3.13q-.36.31-.4-.12Zm35.71 21.26c-2.75 6.25-10.01 3.71-13.03-.83a.49.48-33.7 0 0-.69-.13l-4.92 3.35a.63.61-30.4 0 0-.22.79c4.88 9.97 22.93 10.72 26.3-.77 1.43-4.88-.3-8.94-4.92-11.3-3.03-1.54-9.4-2.55-10.96-4.21-4.48-4.77 5.43-7.3 9.56-1.57a.7.42 54.5 0 0 .74.32l5.36-3.67a.68.41 55.9 0 0-.04-.8c-5.84-8.42-21.13-10.03-24.23 1.9-2.66 10.26 8.33 11.57 15.24 14.19q2.58.97 1.81 2.73Zm38.22-.72c-5.1 6.92-15.53 6.04-15.83-3.72a.61.54-.9 0 1 .61-.56h21a.66.6 2.4 0 0 .65-.55c.67-8.04-2.01-17.44-10.55-19.48-20.31-4.86-26.5 24.96-12.6 33.54 7.38 4.57 18.22 2.54 22.6-5.35a.89.54-59.7 0 0-.02-1l-5.03-3.24a.79.48-54.4 0 0-.83.36Zm-384.95-9.79c.03-7.48 12.23-11.68 12.22-.99q-.01 10.46.03 20.95a.55.48-90 0 0 .48.55h7.25a.57.47-89.4 0 0 .47-.56q.19-17.46-.05-22.87c-.39-8.92-7.22-14.5-15.93-10.9-2.27.94-4.06 3.03-5.9 4.77a.37.37 54.4 0 1-.58-.1c-3.85-7.21-13.71-7.57-18.54-1.1q-.85 1.14-1.04-.22l-.45-3.27a.58.47 85.2 0 0-.48-.5h-6a.54.5 0 0 0-.54.5l.06 33.75a.5.48 90 0 0 .48.5h7.25a.55.48 90 0 0 .48-.55q.04-9.24.02-18.48c-.03-8.74 12.47-14.59 12.49-.83q.01 9.64.03 19.3a.56.48-90 0 0 .48.56H307a.56.49-89.4 0 0 .49-.55q0-9.99.03-19.96Zm562.25 17.25.5 2.76a.6.46 83.6 0 0 .48.5h5.5a.55.46 90 0 0 .46-.55q.21-16.06-.06-22.37c-.6-14.32-16.71-15.6-25.31-8.19a.62.44-38.8 0 0-.2.7l3.06 4.46a1.12 1.08-35 0 0 1.55.24c3.72-2.61 14.1-5.41 12.98 3.18a.57.57 3.4 0 1-.57.5q-8.07-.01-11.93 1.51c-17.22 6.82-1.9 31.49 12.58 17.02q.78-.78.96.24Zm-36.31-.24.42 3.07a.64.5-3 0 0 .62.43h6a.57.5 0 0 0 .57-.5l.08-33.5a.75.65 90 0 0-.65-.75h-7a.57.48 90 0 0-.48.57q-.04 8.8-.02 17.62.01 3.1-.55 4.57c-2.02 5.25-10.46 8.3-11.91.8-1.29-6.7-.26-16.09-.36-23.12a.48.47-1.2 0 0-.49-.46l-6.94.03a.55.41-88.6 0 0-.42.53q-.63 18.52.38 26.19c1.39 10.53 14.02 11.1 20.1 4.33q.54-.61.65.19Zm-679.16-8.68a.31.31 46.8 0 0 .59 0l7.2-22.36a.31.31 8.3 0 1 .3-.21h8.34a.31.31 10.5 0 1 .29.42l-12.87 34.13a.31.31-79.7 0 1-.29.2h-6.51a.31.31 79.7 0 1-.29-.2l-12.9-34.13a.31.31-10.6 0 1 .29-.42h8.35a.31.31 80.7 0 1 .3.22l7.2 22.35Zm752.7-15.9a.51.51 88.4 0 0-.58-.5l-2.34.31a.51.51-86.7 0 1-.58-.5v-5.47a.51.51 0 0 1 .51-.51h10.45a.51.51 89.8 0 1 .51.51l.04 33.73a.51.51 89 0 1-.51.51h-6.99a.51.51 0 0 1-.51-.51v-27.57Zm54.91 16.03-7.09-22.01a.99.81 79.5 0 0-.82-.69h-7.5a.51.48 79 0 0-.43.69l12.23 32.29a1.65 1.16 52.8 0 1 .04 1.1l-2.42 5.84q-1.16 2.78-3.58 2.03l-2.57-.8a.66.44-78.5 0 0-.59.59l-.86 5.27a.67.62 16.1 0 0 .42.69c5.41 2.1 12.63.93 14.79-4.94q3.35-9.15 14.78-42.22a.41.35-79.4 0 0-.31-.54h-8a.7.48-77.8 0 0-.52.49l-7.02 22.2q-.28.86-.55.01Z"/><path fill="#00b3ae" d="M503.21 93.65q-38.16 22.24-76.38 44.2-.37.21-.83.94l-.27-.04a.71.48 26.5 0 0-.45.06l-102.35 59.06a.32.31 72.4 0 1-.46-.25c-.54-5.42.1-11.58-.01-16.17q-.25-10.71-.2-21.43c.07-15.75.39-21.82 13.68-29.5Q387.01 101 438.12 71.54c9-5.18 16.36-6.77 25.33-1.28 13.03 7.98 26.54 15.27 39.76 23.39Z"/><path fill="#002651" d="M555.75 123.29 426 197.96v-59.17q.46-.73.83-.94 38.22-21.96 76.38-44.2 19.5-11.17 39.2-22.54c9.92-5.73 16.08-5.52 25.66-.06q19.21 10.97 38.35 22.13a.44.44-90 0 1 0 .76l-50.67 29.35Z"/><path fill="#00b3ae" d="M555.75 123.29q6.56 4.2 13.3 8.1c14.89 8.6 12.67 20.67 11.99 36.61q-.3.47-1.1.94-58.86 33.83-153.98 89.06l-77.06 44.4a1.09 1.07-44.8 0 1-1.07.01c-9.3-5.25-23.26-10.95-25.09-22.66q-1.18-7.52-.26-21.51a.96.95 77.4 0 1 .47-.75L426 197.96l129.75-74.67Z"/><path fill="#002651" d="M580.71 228.75c-.41-.03-.8-.02-1.18.19q-64.02 36.95-128.03 73.86c-6.56-4.13-16.6-8.62-20.91-13.93-6.59-8.1-4.58-20.74-4.63-30.87q95.12-55.23 153.98-89.06.8-.47 1.1-.94.98-.32 1.89-.84 37.66-21.72 75.38-43.49a.9.86 43.8 0 1 .86 0q13.53 7.5 16.75 9.64c11.39 7.59 8.91 22.83 8.8 34.42a.87.86 75 0 1-.43.75q-51.37 29.68-102.74 59.35c-.25.15-.65.69-.84.92Zm-77.04 103.82q36.81-21.43 73.77-42.63.67-.39 4.01-2.57l102.6-59.11a.47.47 74.6 0 1 .7.4v47.59c0 10.68-6.76 15.35-16.17 20.79q-46.69 27-93.43 53.94c-12.31 7.09-19.34 11.75-31.58 4.69q-19.81-11.43-39.9-23.1Z"/><path fill="#00b3ae" d="M580.71 228.75q.5 1.03.5 1.31-.08 28.56.24 57.31-3.34 2.18-4.01 2.57-36.96 21.2-73.77 42.63-19.37 11.18-38.79 22.28c-8.67 4.96-15.76 6.04-24.46 1q-32.31-18.69-39.8-23.1a.29.29 44.4 0 1-.01-.5l50.89-29.45q64.01-36.91 128.03-73.86c.38-.21.77-.22 1.18-.19Z"/><path fill="#002651" d="M366.4 457.31c-5.59 8.31 3.09 14.87 10.1 17.21 17.02 5.7 42.22 11.45 43.68 32.31q1.73 24.69-20.18 34.16c-18.36 7.93-43.36 3.51-60.31-5.75a.67.64-65.4 0 1-.28-.81l6.63-17.91a.54.51-66.6 0 1 .72-.31c12.42 6.12 25.84 8.93 38.73 6.54 12.78-2.37 14.77-16.91 1.72-21.49-17.29-6.08-44.5-11.42-45.96-34.33-2.63-41.28 52.75-41.71 75.8-24.69a.58.55 33.5 0 1 .17.74l-9.24 16.23a.57.41 31 0 1-.71.06c-9.33-5.91-32.78-13.97-40.87-1.96Zm-305.15-4.06h-32a.7.57 89.5 0 1-.57-.69l-.2-18.31a.77.49-.3 0 1 .77-.5h88.5a.5.5 0 0 1 .5.5v18.5a.5.5 0 0 1-.5.5H85.5a.5.5 0 0 0-.5.5v77.75a.89.82-17.1 0 1-.42.72c-3.88 2.43-17.15 11.68-21.09 11.16q-1.72-.23-1.72-2.13l-.03-87.5a.5.49 90 0 0-.49-.5Zm94.29 53.5-.13 35.75a.66.52 0 0 1-.66.52l-21.75.01a.5.28 0 0 1-.5-.28v-108.5a.53.46 0 0 1 .53-.46q36.74-.14 45.71-.02c19.58.27 36.1 9.15 38.05 30.21q2.41 26.11-20.06 37.59a.53.47-28.8 0 0-.25.69l25.2 40.31q.3.49-.18.49l-24.75-.09a1.01.67 68.8 0 1-.71-.5l-21.42-35.62a1.06.46 64.5 0 0-.68-.59l-17.94-.01a.5.46-90 0 0-.46.5Zm36.58-41.76c-2.08-14.86-26.05-11.87-36.08-11.69a.55.45-.6 0 0-.54.45v32a.55.47.6 0 0 .54.47c15.59.06 39.59 3.89 36.08-21.23Zm108.35 77.46c-20.13 5.99-56.47 5.02-64.11-19.92q-1.4-4.54-1.38-13.69.05-31.76 0-63.56a.92.88 74.7 0 1 .42-.77q8.01-5.11 16.18-9.79c2.04-1.17 3.45-1.12 5.67-.95a.54.54 2.3 0 1 .5.54q-.01 40.69.01 81.38c.01 6.66 8.99 8.04 13.98 8.83 8.26 1.31 29.18 1.84 29.05-10.52-.28-25.23 1.01-46.5-.11-68.54a.87.87 72.5 0 1 .4-.77c4.61-2.89 16.94-11.44 21.93-10.94a.56.55-87.2 0 1 .49.56q-.03 39.08.03 78.16c.03 15.49-7.86 25.46-23.06 29.98Zm161.28-89.2h-32.5a.5.46 90 0 1-.46-.5l-.06-18.5a.77.5 0 0 1 .77-.5h88.25a.5.5 0 0 1 .5.5v18.5a.5.5 0 0 1-.5.5H485.5a.5.5 0 0 0-.5.5v78a.71.69-16.8 0 1-.33.59q-8.4 5.16-16.58 9.97c-1.57.93-3.31.88-5.04.98a.79.76 88.6 0 1-.8-.79v-88.75a.5.5 0 0 0-.5-.5Z"/><path fill="#425880" d="m626.64 477.16-29.43 62.69a.32.32 12.4 0 1-.29.18l-12.53.04a.32.32 77.6 0 1-.29-.19l-28.74-61.66a.32.32 33.3 0 0-.61.13l-.02 64.58a.32.32-90 0 1-.32.32h-21.34a.32.32 0 0 1-.32-.32V434.07a.32.32 89.9 0 1 .32-.32h21.47a.32.32 77.6 0 1 .29.18l36.32 77.89a.32.32 44.7 0 0 .59-.01l35.01-77.87a.32.32 12.3 0 1 .29-.19h21.93a.32.32.4 0 1 .32.32l-.27 108.77a.32.32 0 0 1-.32.32l-21.13.04a.32.32 0 0 1-.32-.32v-65.59a.32.32-35.7 0 0-.61-.13Zm84.62-16.27-28.04 82.03a.31.31 9.3 0 1-.29.21l-23.54.11a.31.31-79.7 0 1-.29-.42l40.82-108.87a.31.31-79.8 0 1 .29-.2h22.92a.31.31 79.2 0 1 .29.2l41.89 108.68a.31.31 75.1 0 1-.29.42l-24.26.18a.31.31 80.1 0 1-.29-.21l-28.62-82.13a.31.31-44.8 0 0-.59 0Zm105.56 45.38-18.07-.03a.51.5-90 0 0-.5.51v36a.5.5 0 0 1-.5.5h-22a.5.5 0 0 1-.5-.5v-108.5a.53.46-.6 0 1 .52-.46q36-.15 45.22-.02c23.42.33 40.4 12.12 38.78 37.51q-1.36 21.25-20.3 30.28a.48.47-28.7 0 0-.2.68l24.8 39.71q.76 1.22-.57 1.22l-23.75.1a.94.93-15 0 1-.81-.46l-21.5-35.75a1.09.15 59.9 0 0-.62-.79Zm18.12-40.43c-1.7-15.46-24.37-12.89-36.12-12.47a.63.59 89.1 0 0-.57.63v31.75a.54.46 0 0 0 .54.46c15.37.14 38.81 3.85 36.15-20.37Z"/><rect width="23.56" height="109.26" x="877" y="435.24" fill="#425880" rx=".37"/><path fill="#425880" d="m930.79 486.71 46.02 57.23q.43.54-.31.54l-28.75.06a1.03.79-14.8 0 1-.74-.31q-22.47-28.08-45.77-55.46a1.4 1.32-45.7 0 1 .03-1.74l41.93-51.33a1.21.82-63.5 0 1 .8-.45l29.44-.01q.7 0 .29.48l-42.96 50.05a.77.7 46.6 0 0 .02.94Z"/><path fill="#fff" d="M156.04 453.3c10.03-.18 34-3.17 36.08 11.69 3.51 25.12-20.49 21.29-36.08 21.23a.55.47.6 0 1-.54-.47v-32a.55.45-.6 0 1 .54-.45Zm642.78.07c11.75-.42 34.42-2.99 36.12 12.47 2.66 24.22-20.78 20.51-36.15 20.37a.54.46 0 0 1-.54-.46V454a.63.59 89.1 0 1 .57-.63Z"/><circle cx="910.83" cy="572.63" r="5.47" fill="#425880"/><path fill="#425880" d="m555.4 586.25.14-15a.77.72 81.2 0 1 .48-.7l6.8-2.47a.33.23-13.6 0 1 .43.17v49.25a.5.5 0 0 1-.5.5H557a.81.55-1.8 0 1-.79-.5l-.26-2.73q-.09-.94-.59-.46-8.53 8.08-17.3 2.63c-15.23-9.47-4-46.31 16.73-30.56q.61.46.61-.13Zm-11.84 24.16q1.63 1.29 3.7 1.06 4.7-.53 7.06-4.5c1.56-2.63 1.5-10.55-.29-13.04q-2.11-2.94-5.54-3.42c-10.08-1.39-11.35 14.81-4.93 19.9Zm186.69-24.16v-15a.82.74 80.8 0 1 .49-.75l5.86-2.13a1.22 1.2-10 0 1 1.64 1.13l-.23 47.75a.75.51-90 0 1-.51.75h-6a.7.58-.8 0 1-.7-.56l-.07-2.19a1.18.41-87 0 0-.26-.9q-.46-.35-1.05.32c-6.59 7.31-17.99 5.29-21.75-4.03-3.84-9.51-1.88-26.23 10.67-27.86q5.9-.76 11.46 3.59.46.36.45-.12Zm-8.536 25.241a10.62 8.13 92.3 0 0 8.55-10.285 10.62 8.13 92.3 0 0-7.698-10.937 10.62 8.13 92.3 0 0-8.55 10.285 10.62 8.13 92.3 0 0 7.698 10.937Zm172.696.169 3.85.12a.69.44-.8 0 1 .64.4l.7 5.06a.79.46-13.8 0 1-.62.6c-8 2.28-13.47-.07-13.45-9.05q.04-18.07-.58-36.74a1.83 1.64-11.8 0 1 1.22-1.65l6.56-2.37a.4.29-12.6 0 1 .52.22l.01 41.5a1.92 1.18-89.6 0 0 1.15 1.91Zm-101.72 5.73c-2.45.42-4.97 1.45-7.29 1.54-21.17.76-24.95-24.85-17.86-39.13 7.67-15.47 28.93-12.98 34.17 3.22q4.97 15.4-3.2 29.07a1.03.76-50.2 0 0-.06.97l3.85 5.88a.72.52 54.8 0 1-.01.85l-4.6 3.64a.66.49 55.4 0 1-.81-.28l-3.45-5.33a.89.62 65.1 0 0-.74-.43Zm-4.01-19.32 3.25 4.98q.77 1.17 1.22-.14 3.27-9.47-.75-18.71c-4.12-9.44-13.97-8.56-17.42.73-3.05 8.17-3.03 24.23 8.48 25.88q1.89.27 3.97-1.04a.54.46-32.7 0 0 .2-.68l-4.29-6.72a.83.44 56 0 1-.1-.9l4.54-3.45a.68.55-36.2 0 1 .9.05ZM87.75 614.55c-2.91 1.59-5.64 3.89-8.98 4.23q-17.25 1.77-21.02-15.79c-2.93-13.66.96-31.5 17.91-33.2q11.43-1.15 18.77 9.01a.74.67 54.6 0 1-.12 1l-5.56 3.96a.77.75 53.7 0 1-1.05-.17c-1.66-2.2-3.75-4.19-6.45-5.03-22.44-7.01-19.78 43.57 2.23 30.18q4.42-2.7 3.71-7.85a.74.69 85.7 0 0-.69-.64H78a.64.45-.4 0 1-.64-.44l-.15-6.31a.78.54.1 0 1 .79-.55l16.75.08a.52.41 0 0 1 .52.41l-.03 24.31a.5.49-90 0 1-.49.5H89a.58.54-2.1 0 1-.58-.5l-.22-2.99a.31.28-17.4 0 0-.45-.21Zm375-16.69.07 12.05a.36.36 89.2 0 0 .36.36l22.28-.08a.36.36-89.1 0 1 .36.38l-.32 7.34a.36.36-88.8 0 1-.35.34h-30.54a.36.36.1 0 1-.36-.36v-47.28a.36.36 0 0 1 .36-.36h30.59a.36.36 1 0 1 .36.37l-.22 7.03a.36.36-88.9 0 1-.36.35H463.3a.36.36 0 0 0-.36.36l-.06 11.28a.36.36-89.8 0 0 .36.36h18.97a.36.36 2 0 1 .36.38l-.32 6.78a.36.36 1.3 0 1-.36.34h-18.78a.36.36 89.7 0 0-.36.36Zm-40.32-14.41 6.57.07a.51.48.6 0 1 .5.48v5.25a.74.62.4 0 1-.75.62l-6-.08a.71.49-89.6 0 0-.5.71l.01 18q0 3.88 2.46 3.55l2.98-.41a.63.54-8.6 0 1 .69.43l.9 4.92a.75.55-16 0 1-.52.67c-4.47 1.54-10.8 1.46-13.33-3.07-2.49-4.49-1.21-18.58-1.18-24.05a.96.82-1.3 0 0-1.01-.82l-4.06.22a.68.42 89.3 0 1-.44-.69V584a.5.5 0 0 1 .5-.5H414a.5.5 0 0 0 .5-.5v-6.75a.93.69 82.9 0 1 .47-.83l6.45-2.28a.65.64-9.2 0 1 .86.61l-.18 9a.69.35-88.3 0 0 .33.7Zm503.32 6.24-4 .27a.48.43 87 0 1-.46-.46l-.14-5a.97.84 89.3 0 1 .85-1h4.25a.75.5-90 0 0 .5-.75v-6.5a.89.73 81.7 0 1 .48-.8l6.76-2.47a.5.38 82.5 0 1 .51.52v9.5a.5.5 0 0 0 .5.5h6.5a.48.43-88.7 0 1 .43.5l-.24 5.25a.52.44-88.7 0 1-.44.5l-6-.01a.79.76 0 0 0-.79.76l.13 19.75a1.09.82-78.4 0 0 .39.83q2.15 1.45 4.75.56a.74.49-16 0 1 .9.29l.9 5.06a.85.59-14.6 0 1-.64.75c-7.49 2.21-14.45.35-14.3-8.74q.17-9.35-.37-18.68a.66.43 86.4 0 0-.47-.63Z"/><path fill="#fff" d="m787.78 598.02-4.54 3.45a.83.44 56 0 0 .1.9l4.29 6.72a.54.46-32.7 0 1-.2.68q-2.08 1.31-3.97 1.04c-11.51-1.65-11.53-17.71-8.48-25.88 3.45-9.29 13.3-10.17 17.42-.73q4.02 9.24.75 18.71-.45 1.31-1.22.14l-3.25-4.98a.68.55-36.2 0 0-.9-.05Z"/><path fill="#425880" d="M118.96 619.23a18.36 15.87 90 0 1-15.87-18.36 18.36 15.87 90 0 1 15.87-18.36 18.36 15.87 90 0 1 15.87 18.36 18.36 15.87 90 0 1-15.87 18.36Zm.04-7.4a10.97 7.63 90.1 0 0 7.65-10.957 10.97 7.63 90.1 0 0-7.61-10.983 10.97 7.63 90.1 0 0-7.65 10.957A10.97 7.63 90.1 0 0 119 611.83Zm85.49-9.16a.75.63 2 0 1-.74.58H183a.6.58 0 0 0-.6.58c0 9.91 11.09 10.48 15.8 3.7a.79.5-55.5 0 1 .85-.36l5 3.29a.77.64-57.9 0 1 .13.98q-4.93 8.08-14.7 7.75c-19.01-.66-20.66-30.65-3.96-35.79 13.46-4.14 19.91 7.75 18.97 19.27Zm-8.11-6.08c-1.44-9.73-11.98-8.22-13.75.39a.43.39-83.4 0 0 .37.52h12.5a.88.8-3.7 0 0 .88-.91Zm23.83-9.45c4.26-3.24 6.43-6.11 12.23-3.38a.75.63 21.2 0 1 .43.77l-1.65 5.96a.69.54 12.8 0 1-.77.36c-8.3-1.67-9.93 4.05-9.96 10.97q-.02 7.86.07 15.79a.63.56 89.5 0 1-.56.64h-6.75a.5.5 0 0 1-.5-.5V584a.5.5 0 0 1 .5-.5h5.5a.76.55-2 0 1 .74.5l.3 2.99q.04.44.42.15Zm27.94.18c4.88-5.38 13.82-6.66 18.04-.62 4.22 6.03 3.02 23.53 2.63 30.84a.63.51.9 0 1-.63.49l-6.94-.04a.53.52-88.9 0 1-.51-.54q.27-18.72-.19-22.44c-1.1-8.85-12.67-3.86-12.55 4.14q.13 9.29-.19 18.58a.62.57 1 0 1-.62.55l-6.69-.04a.5.49 0 0 1-.5-.49v-34a.5.5 0 0 1 .5-.5h6.25a.54.44 87.3 0 1 .45.5l.32 3.5q.06.69.63.07Zm95.68 16.75c.45 9.62 11.17 10.23 15.86 3.49a.79.51-55.9 0 1 .84-.36l4.64 2.91a1.56 1.31-54.4 0 1 .16 2.14c-8.48 10.77-25.55 8.99-28.92-5.25-7.03-29.71 33.41-33.14 29.65-4.2a.57.51 3.4 0 1-.56.44l-21.31.03a.77.38 87.7 0 0-.36.8Zm10.53-13.44q-2.25-1.67-4.91-.47-4.31 1.93-5.17 6.62a.64.51-83.5 0 0 .47.75l13-.09a.57.45 83.2 0 0 .41-.67q-.68-3.82-3.8-6.14Zm28.06-3.3c7.74-7.62 20.43-5.84 20.75 6.7q.21 8.15.05 23.42a.56.47-89.4 0 1-.47.55H396a.55.47 90 0 1-.47-.55c-.03-5.08 1.44-23.18-2.53-26.16-3.42-2.57-7.86.53-9.62 3.81-2.08 3.88-.88 17.64-.9 22.61a.54.48-90 0 1-.48.54h-7a.5.5 0 0 1-.5-.5v-34a.51.5-90 0 1 .5-.51l6.43.03a.73.58 90 0 1 .58.73l-.02 3.24q-.01.52.43.09Zm120.04-.2q4.57-3.54 6.09-3.88c11.86-2.66 14.37 5.01 14.8 14.98q.42 9.67.03 19.36a.58.45 1 0 1-.57.43l-6.81.04a.46.46-89.4 0 1-.46-.47q.12-10.26-.36-20.47c-.42-9-8.9-8.43-11.82-2.09-2.11 4.6-.85 17.19-.88 22.67a.56.48-89.4 0 1-.48.55h-7a.5.5 0 0 1-.5-.5v-34a.5.5 0 0 1 .5-.5h6.5a.53.49.5 0 1 .53.5l-.11 3.3q-.02.51.54.08Zm85.132 32.08a18.33 15.9 89.9 0 1-15.932-18.302 18.33 15.9 89.9 0 1 15.868-18.358 18.33 15.9 89.9 0 1 15.932 18.302 18.33 15.9 89.9 0 1-15.868 18.358Zm-.012-7.4a10.95 7.61 90 0 0 7.61-10.95 10.95 7.61 90 0 0-7.61-10.95 10.95 7.61 90 0 0-7.61 10.95 10.95 7.61 90 0 0 7.61 10.95Z"/><path fill="#425880" d="M618.94 587.11c3.92-3.39 7.07-6.23 12.37-3.13a.65.57 24.6 0 1 .31.69l-1.85 6.08a.56.53 21.3 0 1-.76.31c-5.72-2.68-9.77 2.9-9.76 8.06q.02 9.29-.02 18.57a.56.48-90 0 1-.48.56h-7a.69.44-90 0 1-.44-.69l.19-33.56a.51.5-89.4 0 1 .5-.5h5.5a.76.55-2 0 1 .74.5l.3 2.99q.04.43.4.12Zm35.31 21.14q.77-1.76-1.81-2.73c-6.91-2.62-17.9-3.93-15.24-14.19 3.1-11.93 18.39-10.32 24.23-1.9a.68.41 55.9 0 1 .04.8l-5.36 3.67a.7.42 54.5 0 1-.74-.32c-4.13-5.73-14.04-3.2-9.56 1.57 1.56 1.66 7.93 2.67 10.96 4.21 4.62 2.36 6.35 6.42 4.92 11.3-3.37 11.49-21.42 10.74-26.3.77a.63.61-30.4 0 1 .22-.79l4.92-3.35a.49.48-33.7 0 1 .69.13c3.02 4.54 10.28 7.08 13.03.83Zm22.39-4.44c.3 9.76 10.73 10.64 15.83 3.72a.79.48-54.4 0 1 .83-.36l5.03 3.24a.89.54-59.7 0 1 .02 1c-4.38 7.89-15.22 9.92-22.6 5.35-13.9-8.58-7.71-38.4 12.6-33.54 8.54 2.04 11.22 11.44 10.55 19.48a.66.6 2.4 0 1-.65.55h-21a.61.54-.9 0 0-.61.56Zm13.99-6.93c-.05-9.05-11.85-9.3-13.63 0a.52.51-84.4 0 0 .5.62h12.75a.61.38 89.3 0 0 .38-.62Zm-370.89-.13c.01-10.69-12.19-6.49-12.22.99q-.03 9.97-.03 19.96a.56.49-89.4 0 1-.49.55h-7.25a.56.48 90 0 1-.48-.56q-.02-9.66-.03-19.3c-.02-13.76-12.52-7.91-12.49.83q.02 9.24-.02 18.48a.55.48-90 0 1-.48.55H279a.5.48 90 0 1-.48-.5l-.06-33.75a.54.5 0 0 1 .54-.5h6a.58.47 85.2 0 1 .48.5l.45 3.27q.19 1.36 1.04.22c4.83-6.47 14.69-6.11 18.54 1.1a.37.37 54.4 0 0 .58.1c1.84-1.74 3.63-3.83 5.9-4.77 8.71-3.6 15.54 1.98 15.93 10.9q.24 5.41.05 22.87a.57.47-89.4 0 1-.47.56h-7.25a.55.48 90 0 1-.48-.55q-.04-10.49-.03-20.95Zm550.03 18.24q-.18-1.02-.96-.24c-14.48 14.47-29.8-10.2-12.58-17.02q3.86-1.52 11.93-1.51a.57.57 3.4 0 0 .57-.5c1.12-8.59-9.26-5.79-12.98-3.18a1.12 1.08-35 0 1-1.55-.24l-3.06-4.46a.62.44-38.8 0 1 .2-.7c8.6-7.41 24.71-6.13 25.31 8.19q.27 6.31.06 22.37a.55.46 90 0 1-.46.55h-5.5a.6.46 83.6 0 1-.48-.5l-.5-2.76Zm-12.67-8.48c-2.92 8.5 13.87 7.4 11.55-4.13a.66.65 84.8 0 0-.61-.52c-3.8-.16-9.4.16-10.94 4.65Zm-23.64 8.24q-.11-.8-.65-.19c-6.08 6.77-18.71 6.2-20.1-4.33q-1.01-7.67-.38-26.19a.55.41-88.6 0 1 .42-.53l6.94-.03a.48.47-1.2 0 1 .49.46c.1 7.03-.93 16.42.36 23.12 1.45 7.5 9.89 4.45 11.91-.8q.56-1.47.55-4.57-.02-8.82.02-17.62a.57.48-90 0 1 .48-.57h7a.75.65-90 0 1 .65.75l-.08 33.5a.57.5 0 0 1-.57.5h-6a.64.5-3 0 1-.62-.43l-.42-3.07ZM162.39 583.5h8.34a.31.31 10.5 0 1 .29.42l-12.87 34.13a.31.31-79.7 0 1-.29.2h-6.51a.31.31 79.7 0 1-.29-.2l-12.9-34.13a.31.31 79.5 0 1 .29-.42h8.35a.31.31 80.7 0 1 .3.22l7.2 22.35a.31.31 46.8 0 0 .59 0l7.2-22.36a.31.31 8.3 0 1 .3-.21Zm741.11 5.98v-5.47a.51.51 0 0 1 .51-.51h10.45a.51.51 89.9 0 1 .51.51l.04 33.73a.51.51 89 0 1-.51.51h-6.99a.51.51 0 0 1-.51-.51v-27.57a.51.51 88.4 0 0-.58-.5l-2.34.31a.51.51-4 0 1-.58-.5Zm58.41 16.72q.27.85.55-.01l7.02-22.2a.7.48-77.8 0 1 .52-.49h8a.41.35-79.4 0 1 .31.54q-11.43 33.07-14.78 42.22c-2.16 5.87-9.38 7.04-14.79 4.94a.67.62 16.1 0 1-.42-.69l.86-5.27a.66.44-78.5 0 1 .59-.59l2.57.8q2.42.75 3.58-2.03l2.42-5.84a1.65 1.16 52.8 0 0-.04-1.1l-12.23-32.29a.51.48 79 0 1 .43-.69h7.5a.99.81 79.5 0 1 .82.69l7.09 22.01Z"/><ellipse fill="#fff" rx="10.97" ry="7.63" transform="rotate(90.1 -240.396 359.836)"/><path fill="#fff" d="M182.63 596.98c1.77-8.61 12.31-10.12 13.75-.39a.88.8-3.7 0 1-.88.91H183a.43.39-83.4 0 1-.37-.52Zm171.73-6.35q3.12 2.32 3.8 6.14a.57.45 83.2 0 1-.41.67l-13 .09a.64.51-83.5 0 1-.47-.75q.86-4.69 5.17-6.62 2.66-1.2 4.91.47Z"/><ellipse fill="#fff" rx="10.95" ry="7.61" transform="rotate(90 -6.64 594.22)"/><path fill="#fff" d="M677 596.88c1.78-9.3 13.58-9.05 13.63 0a.61.38 89.3 0 1-.38.62H677.5a.52.51-84.4 0 1-.5-.62Zm-133.44 13.53c-6.42-5.09-5.15-21.29 4.93-19.9q3.43.48 5.54 3.42c1.79 2.49 1.85 10.41.29 13.04q-2.36 3.97-7.06 4.5-2.07.23-3.7-1.06Z"/><ellipse fill="#fff" rx="10.62" ry="8.13" transform="rotate(92.3 72.455 647.299)"/><path fill="#fff" d="M868.65 602.38c2.32 11.53-14.47 12.63-11.55 4.13 1.54-4.49 7.14-4.81 10.94-4.65a.66.65 84.8 0 1 .61.52Z"/></svg>